<?xml version="1.0" encoding="utf-8" standalone="no"?>
<!DOCTYPE svg PUBLIC "-//W3C//DTD SVG 1.1//EN"
  "http://www.w3.org/Graphics/SVG/1.1/DTD/svg11.dtd">
<svg xmlns:xlink="http://www.w3.org/1999/xlink" width="432pt" height="432pt" viewBox="0 0 432 432" xmlns="http://www.w3.org/2000/svg" version="1.1">
 <metadata>
  <rdf:RDF xmlns:dc="http://purl.org/dc/elements/1.1/" xmlns:cc="http://creativecommons.org/ns#" xmlns:rdf="http://www.w3.org/1999/02/22-rdf-syntax-ns#">
   <cc:Work>
    <dc:type rdf:resource="http://purl.org/dc/dcmitype/StillImage"/>
    <dc:date>2025-03-31T19:39:31.724900</dc:date>
    <dc:format>image/svg+xml</dc:format>
    <dc:creator>
     <cc:Agent>
      <dc:title>Matplotlib v3.10.0, https://matplotlib.org/</dc:title>
     </cc:Agent>
    </dc:creator>
   </cc:Work>
  </rdf:RDF>
 </metadata>
 <defs>
  <style type="text/css">*{stroke-linejoin: round; stroke-linecap: butt}</style>
 </defs>
 <g id="figure_1">
  <g id="patch_1">
   <path d="M 0 432 
L 432 432 
L 432 0 
L 0 0 
z
" style="fill: #ffffff"/>
  </g>
  <g id="axes_1">
   <g id="patch_2">
    <path d="M 54 384.48 
L 388.8 384.48 
L 388.8 51.84 
L 54 51.84 
z
" style="fill: #ffffff"/>
   </g>
   <g id="FillBetweenPolyCollection_1">
    <path d="M 54 -90.72 
L 54 99.36 
L 59.410909 105.12 
L 64.821818 110.88 
L 70.232727 116.64 
L 75.643636 122.4 
L 81.054545 128.16 
L 86.465455 133.92 
L 91.876364 139.68 
L 97.287273 145.44 
L 102.698182 151.2 
L 108.109091 156.96 
L 113.52 162.72 
L 118.930909 168.48 
L 124.341818 174.24 
L 129.752727 180 
L 135.163636 185.76 
L 140.574545 191.52 
L 145.985455 197.28 
L 151.396364 203.04 
L 156.807273 208.8 
L 162.218182 214.56 
L 167.629091 220.32 
L 173.04 226.08 
L 178.450909 231.84 
L 183.861818 237.6 
L 189.272727 243.36 
L 194.683636 249.12 
L 200.094545 254.88 
L 205.505455 260.64 
L 210.916364 266.4 
L 216.327273 272.16 
L 221.738182 277.92 
L 227.149091 283.68 
L 232.56 289.44 
L 237.970909 295.2 
L 243.381818 300.96 
L 248.792727 306.72 
L 254.203636 312.48 
L 259.614545 318.24 
L 265.025455 324 
L 270.436364 329.76 
L 275.847273 335.52 
L 281.258182 341.28 
L 286.669091 347.04 
L 292.08 352.8 
L 297.490909 358.56 
L 302.901818 364.32 
L 308.312727 370.08 
L 313.723636 375.84 
L 319.134545 381.6 
L 324.545455 387.36 
L 329.956364 393.12 
L 335.367273 398.88 
L 340.778182 404.64 
L 346.189091 410.4 
L 351.6 416.16 
L 357.010909 421.92 
L 362.421818 427.68 
L 367.832727 433.44 
L 373.243636 439.2 
L 378.654545 444.96 
L 384.065455 450.72 
L 389.476364 456.48 
L 394.887273 462.24 
L 400.298182 468 
L 405.709091 473.76 
L 411.12 479.52 
L 416.530909 485.28 
L 421.941818 491.04 
L 427.352727 496.8 
L 432.763636 502.56 
L 438.174545 508.32 
L 443.585455 514.08 
L 448.996364 519.84 
L 454.407273 525.6 
L 459.818182 531.36 
L 465.229091 537.12 
L 470.64 542.88 
L 476.050909 548.64 
L 481.461818 554.4 
L 486.872727 560.16 
L 492.283636 565.92 
L 497.694545 571.68 
L 503.105455 577.44 
L 508.516364 583.2 
L 513.927273 588.96 
L 519.338182 594.72 
L 524.749091 600.48 
L 530.16 606.24 
L 535.570909 612 
L 540.981818 617.76 
L 546.392727 623.52 
L 551.803636 629.28 
L 557.214545 635.04 
L 562.625455 640.8 
L 568.036364 646.56 
L 573.447273 652.32 
L 578.858182 658.08 
L 584.269091 663.84 
L 589.68 669.6 
L 589.68 -90.72 
L 589.68 -90.72 
L 584.269091 -90.72 
L 578.858182 -90.72 
L 573.447273 -90.72 
L 568.036364 -90.72 
L 562.625455 -90.72 
L 557.214545 -90.72 
L 551.803636 -90.72 
L 546.392727 -90.72 
L 540.981818 -90.72 
L 535.570909 -90.72 
L 530.16 -90.72 
L 524.749091 -90.72 
L 519.338182 -90.72 
L 513.927273 -90.72 
L 508.516364 -90.72 
L 503.105455 -90.72 
L 497.694545 -90.72 
L 492.283636 -90.72 
L 486.872727 -90.72 
L 481.461818 -90.72 
L 476.050909 -90.72 
L 470.64 -90.72 
L 465.229091 -90.72 
L 459.818182 -90.72 
L 454.407273 -90.72 
L 448.996364 -90.72 
L 443.585455 -90.72 
L 438.174545 -90.72 
L 432.763636 -90.72 
L 427.352727 -90.72 
L 421.941818 -90.72 
L 416.530909 -90.72 
L 411.12 -90.72 
L 405.709091 -90.72 
L 400.298182 -90.72 
L 394.887273 -90.72 
L 389.476364 -90.72 
L 384.065455 -90.72 
L 378.654545 -90.72 
L 373.243636 -90.72 
L 367.832727 -90.72 
L 362.421818 -90.72 
L 357.010909 -90.72 
L 351.6 -90.72 
L 346.189091 -90.72 
L 340.778182 -90.72 
L 335.367273 -90.72 
L 329.956364 -90.72 
L 324.545455 -90.72 
L 319.134545 -90.72 
L 313.723636 -90.72 
L 308.312727 -90.72 
L 302.901818 -90.72 
L 297.490909 -90.72 
L 292.08 -90.72 
L 286.669091 -90.72 
L 281.258182 -90.72 
L 275.847273 -90.72 
L 270.436364 -90.72 
L 265.025455 -90.72 
L 259.614545 -90.72 
L 254.203636 -90.72 
L 248.792727 -90.72 
L 243.381818 -90.72 
L 237.970909 -90.72 
L 232.56 -90.72 
L 227.149091 -90.72 
L 221.738182 -90.72 
L 216.327273 -90.72 
L 210.916364 -90.72 
L 205.505455 -90.72 
L 200.094545 -90.72 
L 194.683636 -90.72 
L 189.272727 -90.72 
L 183.861818 -90.72 
L 178.450909 -90.72 
L 173.04 -90.72 
L 167.629091 -90.72 
L 162.218182 -90.72 
L 156.807273 -90.72 
L 151.396364 -90.72 
L 145.985455 -90.72 
L 140.574545 -90.72 
L 135.163636 -90.72 
L 129.752727 -90.72 
L 124.341818 -90.72 
L 118.930909 -90.72 
L 113.52 -90.72 
L 108.109091 -90.72 
L 102.698182 -90.72 
L 97.287273 -90.72 
L 91.876364 -90.72 
L 86.465455 -90.72 
L 81.054545 -90.72 
L 75.643636 -90.72 
L 70.232727 -90.72 
L 64.821818 -90.72 
L 59.410909 -90.72 
L 54 -90.72 
z
" clip-path="url(#p95cd85a04a)" style="fill: url(#h9abe0bb49b); stroke: #008000; stroke-opacity: 0.8"/>
   </g>
   <g id="FillBetweenPolyCollection_2">
    <path d="M 54 479.52 
L 54 99.36 
L 59.410909 105.12 
L 64.821818 110.88 
L 70.232727 116.64 
L 75.643636 122.4 
L 81.054545 128.16 
L 86.465455 133.92 
L 91.876364 139.68 
L 97.287273 145.44 
L 102.698182 151.2 
L 108.109091 156.96 
L 113.52 162.72 
L 118.930909 168.48 
L 124.341818 174.24 
L 129.752727 180 
L 135.163636 185.76 
L 140.574545 191.52 
L 145.985455 197.28 
L 151.396364 203.04 
L 156.807273 208.8 
L 162.218182 214.56 
L 167.629091 220.32 
L 173.04 226.08 
L 178.450909 231.84 
L 183.861818 237.6 
L 189.272727 243.36 
L 194.683636 249.12 
L 200.094545 254.88 
L 205.505455 260.64 
L 210.916364 266.4 
L 216.327273 272.16 
L 221.738182 277.92 
L 227.149091 283.68 
L 232.56 289.44 
L 237.970909 295.2 
L 243.381818 300.96 
L 248.792727 306.72 
L 254.203636 312.48 
L 259.614545 318.24 
L 265.025455 324 
L 270.436364 329.76 
L 275.847273 335.52 
L 281.258182 341.28 
L 286.669091 347.04 
L 292.08 352.8 
L 297.490909 358.56 
L 302.901818 364.32 
L 308.312727 370.08 
L 313.723636 375.84 
L 319.134545 381.6 
L 324.545455 387.36 
L 329.956364 393.12 
L 335.367273 398.88 
L 340.778182 404.64 
L 346.189091 410.4 
L 351.6 416.16 
L 357.010909 421.92 
L 362.421818 427.68 
L 367.832727 433.44 
L 373.243636 439.2 
L 378.654545 444.96 
L 384.065455 450.72 
L 389.476364 456.48 
L 394.887273 462.24 
L 400.298182 468 
L 405.709091 473.76 
L 411.12 479.52 
L 416.530909 485.28 
L 421.941818 491.04 
L 427.352727 496.8 
L 432.763636 502.56 
L 438.174545 508.32 
L 443.585455 514.08 
L 448.996364 519.84 
L 454.407273 525.6 
L 459.818182 531.36 
L 465.229091 537.12 
L 470.64 542.88 
L 476.050909 548.64 
L 481.461818 554.4 
L 486.872727 560.16 
L 492.283636 565.92 
L 497.694545 571.68 
L 503.105455 577.44 
L 508.516364 583.2 
L 513.927273 588.96 
L 519.338182 594.72 
L 524.749091 600.48 
L 530.16 606.24 
L 535.570909 612 
L 540.981818 617.76 
L 546.392727 623.52 
L 551.803636 629.28 
L 557.214545 635.04 
L 562.625455 640.8 
L 568.036364 646.56 
L 573.447273 652.32 
L 578.858182 658.08 
L 584.269091 663.84 
L 589.68 669.6 
L 589.68 479.52 
L 589.68 479.52 
L 584.269091 479.52 
L 578.858182 479.52 
L 573.447273 479.52 
L 568.036364 479.52 
L 562.625455 479.52 
L 557.214545 479.52 
L 551.803636 479.52 
L 546.392727 479.52 
L 540.981818 479.52 
L 535.570909 479.52 
L 530.16 479.52 
L 524.749091 479.52 
L 519.338182 479.52 
L 513.927273 479.52 
L 508.516364 479.52 
L 503.105455 479.52 
L 497.694545 479.52 
L 492.283636 479.52 
L 486.872727 479.52 
L 481.461818 479.52 
L 476.050909 479.52 
L 470.64 479.52 
L 465.229091 479.52 
L 459.818182 479.52 
L 454.407273 479.52 
L 448.996364 479.52 
L 443.585455 479.52 
L 438.174545 479.52 
L 432.763636 479.52 
L 427.352727 479.52 
L 421.941818 479.52 
L 416.530909 479.52 
L 411.12 479.52 
L 405.709091 479.52 
L 400.298182 479.52 
L 394.887273 479.52 
L 389.476364 479.52 
L 384.065455 479.52 
L 378.654545 479.52 
L 373.243636 479.52 
L 367.832727 479.52 
L 362.421818 479.52 
L 357.010909 479.52 
L 351.6 479.52 
L 346.189091 479.52 
L 340.778182 479.52 
L 335.367273 479.52 
L 329.956364 479.52 
L 324.545455 479.52 
L 319.134545 479.52 
L 313.723636 479.52 
L 308.312727 479.52 
L 302.901818 479.52 
L 297.490909 479.52 
L 292.08 479.52 
L 286.669091 479.52 
L 281.258182 479.52 
L 275.847273 479.52 
L 270.436364 479.52 
L 265.025455 479.52 
L 259.614545 479.52 
L 254.203636 479.52 
L 248.792727 479.52 
L 243.381818 479.52 
L 237.970909 479.52 
L 232.56 479.52 
L 227.149091 479.52 
L 221.738182 479.52 
L 216.327273 479.52 
L 210.916364 479.52 
L 205.505455 479.52 
L 200.094545 479.52 
L 194.683636 479.52 
L 189.272727 479.52 
L 183.861818 479.52 
L 178.450909 479.52 
L 173.04 479.52 
L 167.629091 479.52 
L 162.218182 479.52 
L 156.807273 479.52 
L 151.396364 479.52 
L 145.985455 479.52 
L 140.574545 479.52 
L 135.163636 479.52 
L 129.752727 479.52 
L 124.341818 479.52 
L 118.930909 479.52 
L 113.52 479.52 
L 108.109091 479.52 
L 102.698182 479.52 
L 97.287273 479.52 
L 91.876364 479.52 
L 86.465455 479.52 
L 81.054545 479.52 
L 75.643636 479.52 
L 70.232727 479.52 
L 64.821818 479.52 
L 59.410909 479.52 
L 54 479.52 
z
" clip-path="url(#p95cd85a04a)" style="fill: url(#h0e046836c7); stroke: #f08080; stroke-opacity: 0.8"/>
   </g>
   <g id="matplotlib.axis_1">
    <g id="xtick_1">
     <g id="line2d_1">
      <path d="M 54 384.48 
L 54 51.84 
" clip-path="url(#p95cd85a04a)" style="fill: none; stroke: #b0b0b0; stroke-width: 0.8; stroke-linecap: square"/>
     </g>
     <g id="line2d_2">
      <defs>
       <path id="m400a273805" d="M 0 0 
L 0 3.5 
" style="stroke: #000000; stroke-width: 0.8"/>
      </defs>
      <g>
       <use xlink:href="#m400a273805" x="54" y="384.48" style="stroke: #000000; stroke-width: 0.8"/>
      </g>
     </g>
     <g id="text_1">
      <!-- 0.0 -->
      <g transform="translate(46.048437 399.078438) scale(0.1 -0.1)">
       <defs>
        <path id="DejaVuSans-30" d="M 2034 4250 
Q 1547 4250 1301 3770 
Q 1056 3291 1056 2328 
Q 1056 1369 1301 889 
Q 1547 409 2034 409 
Q 2525 409 2770 889 
Q 3016 1369 3016 2328 
Q 3016 3291 2770 3770 
Q 2525 4250 2034 4250 
z
M 2034 4750 
Q 2819 4750 3233 4129 
Q 3647 3509 3647 2328 
Q 3647 1150 3233 529 
Q 2819 -91 2034 -91 
Q 1250 -91 836 529 
Q 422 1150 422 2328 
Q 422 3509 836 4129 
Q 1250 4750 2034 4750 
z
" transform="scale(0.015625)"/>
        <path id="DejaVuSans-2e" d="M 684 794 
L 1344 794 
L 1344 0 
L 684 0 
L 684 794 
z
" transform="scale(0.015625)"/>
       </defs>
       <use xlink:href="#DejaVuSans-30"/>
       <use xlink:href="#DejaVuSans-2e" transform="translate(63.623047 0)"/>
       <use xlink:href="#DejaVuSans-30" transform="translate(95.410156 0)"/>
      </g>
     </g>
    </g>
    <g id="xtick_2">
     <g id="line2d_3">
      <path d="M 120.96 384.48 
L 120.96 51.84 
" clip-path="url(#p95cd85a04a)" style="fill: none; stroke: #b0b0b0; stroke-width: 0.8; stroke-linecap: square"/>
     </g>
     <g id="line2d_4">
      <g>
       <use xlink:href="#m400a273805" x="120.96" y="384.48" style="stroke: #000000; stroke-width: 0.8"/>
      </g>
     </g>
     <g id="text_2">
      <!-- 0.5 -->
      <g transform="translate(113.008438 399.078438) scale(0.1 -0.1)">
       <defs>
        <path id="DejaVuSans-35" d="M 691 4666 
L 3169 4666 
L 3169 4134 
L 1269 4134 
L 1269 2991 
Q 1406 3038 1543 3061 
Q 1681 3084 1819 3084 
Q 2600 3084 3056 2656 
Q 3513 2228 3513 1497 
Q 3513 744 3044 326 
Q 2575 -91 1722 -91 
Q 1428 -91 1123 -41 
Q 819 9 494 109 
L 494 744 
Q 775 591 1075 516 
Q 1375 441 1709 441 
Q 2250 441 2565 725 
Q 2881 1009 2881 1497 
Q 2881 1984 2565 2268 
Q 2250 2553 1709 2553 
Q 1456 2553 1204 2497 
Q 953 2441 691 2322 
L 691 4666 
z
" transform="scale(0.015625)"/>
       </defs>
       <use xlink:href="#DejaVuSans-30"/>
       <use xlink:href="#DejaVuSans-2e" transform="translate(63.623047 0)"/>
       <use xlink:href="#DejaVuSans-35" transform="translate(95.410156 0)"/>
      </g>
     </g>
    </g>
    <g id="xtick_3">
     <g id="line2d_5">
      <path d="M 187.92 384.48 
L 187.92 51.84 
" clip-path="url(#p95cd85a04a)" style="fill: none; stroke: #b0b0b0; stroke-width: 0.8; stroke-linecap: square"/>
     </g>
     <g id="line2d_6">
      <g>
       <use xlink:href="#m400a273805" x="187.92" y="384.48" style="stroke: #000000; stroke-width: 0.8"/>
      </g>
     </g>
     <g id="text_3">
      <!-- 1.0 -->
      <g transform="translate(179.968438 399.078438) scale(0.1 -0.1)">
       <defs>
        <path id="DejaVuSans-31" d="M 794 531 
L 1825 531 
L 1825 4091 
L 703 3866 
L 703 4441 
L 1819 4666 
L 2450 4666 
L 2450 531 
L 3481 531 
L 3481 0 
L 794 0 
L 794 531 
z
" transform="scale(0.015625)"/>
       </defs>
       <use xlink:href="#DejaVuSans-31"/>
       <use xlink:href="#DejaVuSans-2e" transform="translate(63.623047 0)"/>
       <use xlink:href="#DejaVuSans-30" transform="translate(95.410156 0)"/>
      </g>
     </g>
    </g>
    <g id="xtick_4">
     <g id="line2d_7">
      <path d="M 254.88 384.48 
L 254.88 51.84 
" clip-path="url(#p95cd85a04a)" style="fill: none; stroke: #b0b0b0; stroke-width: 0.8; stroke-linecap: square"/>
     </g>
     <g id="line2d_8">
      <g>
       <use xlink:href="#m400a273805" x="254.88" y="384.48" style="stroke: #000000; stroke-width: 0.8"/>
      </g>
     </g>
     <g id="text_4">
      <!-- 1.5 -->
      <g transform="translate(246.928438 399.078438) scale(0.1 -0.1)">
       <use xlink:href="#DejaVuSans-31"/>
       <use xlink:href="#DejaVuSans-2e" transform="translate(63.623047 0)"/>
       <use xlink:href="#DejaVuSans-35" transform="translate(95.410156 0)"/>
      </g>
     </g>
    </g>
    <g id="xtick_5">
     <g id="line2d_9">
      <path d="M 321.84 384.48 
L 321.84 51.84 
" clip-path="url(#p95cd85a04a)" style="fill: none; stroke: #b0b0b0; stroke-width: 0.8; stroke-linecap: square"/>
     </g>
     <g id="line2d_10">
      <g>
       <use xlink:href="#m400a273805" x="321.84" y="384.48" style="stroke: #000000; stroke-width: 0.8"/>
      </g>
     </g>
     <g id="text_5">
      <!-- 2.0 -->
      <g transform="translate(313.888438 399.078438) scale(0.1 -0.1)">
       <defs>
        <path id="DejaVuSans-32" d="M 1228 531 
L 3431 531 
L 3431 0 
L 469 0 
L 469 531 
Q 828 903 1448 1529 
Q 2069 2156 2228 2338 
Q 2531 2678 2651 2914 
Q 2772 3150 2772 3378 
Q 2772 3750 2511 3984 
Q 2250 4219 1831 4219 
Q 1534 4219 1204 4116 
Q 875 4013 500 3803 
L 500 4441 
Q 881 4594 1212 4672 
Q 1544 4750 1819 4750 
Q 2544 4750 2975 4387 
Q 3406 4025 3406 3419 
Q 3406 3131 3298 2873 
Q 3191 2616 2906 2266 
Q 2828 2175 2409 1742 
Q 1991 1309 1228 531 
z
" transform="scale(0.015625)"/>
       </defs>
       <use xlink:href="#DejaVuSans-32"/>
       <use xlink:href="#DejaVuSans-2e" transform="translate(63.623047 0)"/>
       <use xlink:href="#DejaVuSans-30" transform="translate(95.410156 0)"/>
      </g>
     </g>
    </g>
    <g id="xtick_6">
     <g id="line2d_11">
      <path d="M 388.8 384.48 
L 388.8 51.84 
" clip-path="url(#p95cd85a04a)" style="fill: none; stroke: #b0b0b0; stroke-width: 0.8; stroke-linecap: square"/>
     </g>
     <g id="line2d_12">
      <g>
       <use xlink:href="#m400a273805" x="388.8" y="384.48" style="stroke: #000000; stroke-width: 0.8"/>
      </g>
     </g>
     <g id="text_6">
      <!-- 2.5 -->
      <g transform="translate(380.848438 399.078438) scale(0.1 -0.1)">
       <use xlink:href="#DejaVuSans-32"/>
       <use xlink:href="#DejaVuSans-2e" transform="translate(63.623047 0)"/>
       <use xlink:href="#DejaVuSans-35" transform="translate(95.410156 0)"/>
      </g>
     </g>
    </g>
    <g id="text_7">
     <!-- $x_1$ -->
     <g transform="translate(216.05 412.756563) scale(0.1 -0.1)">
      <defs>
       <path id="DejaVuSans-Oblique-78" d="M 3841 3500 
L 2234 1784 
L 3219 0 
L 2559 0 
L 1819 1388 
L 531 0 
L -166 0 
L 1556 1844 
L 641 3500 
L 1300 3500 
L 1972 2234 
L 3144 3500 
L 3841 3500 
z
" transform="scale(0.015625)"/>
      </defs>
      <use xlink:href="#DejaVuSans-Oblique-78" transform="translate(0 0.3125)"/>
      <use xlink:href="#DejaVuSans-31" transform="translate(59.179688 -16.09375) scale(0.7)"/>
     </g>
    </g>
   </g>
   <g id="matplotlib.axis_2">
    <g id="ytick_1">
     <g id="line2d_13">
      <path d="M 54 384.48 
L 388.8 384.48 
" clip-path="url(#p95cd85a04a)" style="fill: none; stroke: #b0b0b0; stroke-width: 0.8; stroke-linecap: square"/>
     </g>
     <g id="line2d_14">
      <defs>
       <path id="m034749f2eb" d="M 0 0 
L -3.5 0 
" style="stroke: #000000; stroke-width: 0.8"/>
      </defs>
      <g>
       <use xlink:href="#m034749f2eb" x="54" y="384.48" style="stroke: #000000; stroke-width: 0.8"/>
      </g>
     </g>
     <g id="text_8">
      <!-- −1.0 -->
      <g transform="translate(22.717187 388.279219) scale(0.1 -0.1)">
       <defs>
        <path id="DejaVuSans-2212" d="M 678 2272 
L 4684 2272 
L 4684 1741 
L 678 1741 
L 678 2272 
z
" transform="scale(0.015625)"/>
       </defs>
       <use xlink:href="#DejaVuSans-2212"/>
       <use xlink:href="#DejaVuSans-31" transform="translate(83.789062 0)"/>
       <use xlink:href="#DejaVuSans-2e" transform="translate(147.412109 0)"/>
       <use xlink:href="#DejaVuSans-30" transform="translate(179.199219 0)"/>
      </g>
     </g>
    </g>
    <g id="ytick_2">
     <g id="line2d_15">
      <path d="M 54 336.96 
L 388.8 336.96 
" clip-path="url(#p95cd85a04a)" style="fill: none; stroke: #b0b0b0; stroke-width: 0.8; stroke-linecap: square"/>
     </g>
     <g id="line2d_16">
      <g>
       <use xlink:href="#m034749f2eb" x="54" y="336.96" style="stroke: #000000; stroke-width: 0.8"/>
      </g>
     </g>
     <g id="text_9">
      <!-- −0.5 -->
      <g transform="translate(22.717187 340.759219) scale(0.1 -0.1)">
       <use xlink:href="#DejaVuSans-2212"/>
       <use xlink:href="#DejaVuSans-30" transform="translate(83.789062 0)"/>
       <use xlink:href="#DejaVuSans-2e" transform="translate(147.412109 0)"/>
       <use xlink:href="#DejaVuSans-35" transform="translate(179.199219 0)"/>
      </g>
     </g>
    </g>
    <g id="ytick_3">
     <g id="line2d_17">
      <path d="M 54 289.44 
L 388.8 289.44 
" clip-path="url(#p95cd85a04a)" style="fill: none; stroke: #b0b0b0; stroke-width: 0.8; stroke-linecap: square"/>
     </g>
     <g id="line2d_18">
      <g>
       <use xlink:href="#m034749f2eb" x="54" y="289.44" style="stroke: #000000; stroke-width: 0.8"/>
      </g>
     </g>
     <g id="text_10">
      <!-- 0.0 -->
      <g transform="translate(31.096875 293.239219) scale(0.1 -0.1)">
       <use xlink:href="#DejaVuSans-30"/>
       <use xlink:href="#DejaVuSans-2e" transform="translate(63.623047 0)"/>
       <use xlink:href="#DejaVuSans-30" transform="translate(95.410156 0)"/>
      </g>
     </g>
    </g>
    <g id="ytick_4">
     <g id="line2d_19">
      <path d="M 54 241.92 
L 388.8 241.92 
" clip-path="url(#p95cd85a04a)" style="fill: none; stroke: #b0b0b0; stroke-width: 0.8; stroke-linecap: square"/>
     </g>
     <g id="line2d_20">
      <g>
       <use xlink:href="#m034749f2eb" x="54" y="241.92" style="stroke: #000000; stroke-width: 0.8"/>
      </g>
     </g>
     <g id="text_11">
      <!-- 0.5 -->
      <g transform="translate(31.096875 245.719219) scale(0.1 -0.1)">
       <use xlink:href="#DejaVuSans-30"/>
       <use xlink:href="#DejaVuSans-2e" transform="translate(63.623047 0)"/>
       <use xlink:href="#DejaVuSans-35" transform="translate(95.410156 0)"/>
      </g>
     </g>
    </g>
    <g id="ytick_5">
     <g id="line2d_21">
      <path d="M 54 194.4 
L 388.8 194.4 
" clip-path="url(#p95cd85a04a)" style="fill: none; stroke: #b0b0b0; stroke-width: 0.8; stroke-linecap: square"/>
     </g>
     <g id="line2d_22">
      <g>
       <use xlink:href="#m034749f2eb" x="54" y="194.4" style="stroke: #000000; stroke-width: 0.8"/>
      </g>
     </g>
     <g id="text_12">
      <!-- 1.0 -->
      <g transform="translate(31.096875 198.199219) scale(0.1 -0.1)">
       <use xlink:href="#DejaVuSans-31"/>
       <use xlink:href="#DejaVuSans-2e" transform="translate(63.623047 0)"/>
       <use xlink:href="#DejaVuSans-30" transform="translate(95.410156 0)"/>
      </g>
     </g>
    </g>
    <g id="ytick_6">
     <g id="line2d_23">
      <path d="M 54 146.88 
L 388.8 146.88 
" clip-path="url(#p95cd85a04a)" style="fill: none; stroke: #b0b0b0; stroke-width: 0.8; stroke-linecap: square"/>
     </g>
     <g id="line2d_24">
      <g>
       <use xlink:href="#m034749f2eb" x="54" y="146.88" style="stroke: #000000; stroke-width: 0.8"/>
      </g>
     </g>
     <g id="text_13">
      <!-- 1.5 -->
      <g transform="translate(31.096875 150.679219) scale(0.1 -0.1)">
       <use xlink:href="#DejaVuSans-31"/>
       <use xlink:href="#DejaVuSans-2e" transform="translate(63.623047 0)"/>
       <use xlink:href="#DejaVuSans-35" transform="translate(95.410156 0)"/>
      </g>
     </g>
    </g>
    <g id="ytick_7">
     <g id="line2d_25">
      <path d="M 54 99.36 
L 388.8 99.36 
" clip-path="url(#p95cd85a04a)" style="fill: none; stroke: #b0b0b0; stroke-width: 0.8; stroke-linecap: square"/>
     </g>
     <g id="line2d_26">
      <g>
       <use xlink:href="#m034749f2eb" x="54" y="99.36" style="stroke: #000000; stroke-width: 0.8"/>
      </g>
     </g>
     <g id="text_14">
      <!-- 2.0 -->
      <g transform="translate(31.096875 103.159219) scale(0.1 -0.1)">
       <use xlink:href="#DejaVuSans-32"/>
       <use xlink:href="#DejaVuSans-2e" transform="translate(63.623047 0)"/>
       <use xlink:href="#DejaVuSans-30" transform="translate(95.410156 0)"/>
      </g>
     </g>
    </g>
    <g id="ytick_8">
     <g id="line2d_27">
      <path d="M 54 51.84 
L 388.8 51.84 
" clip-path="url(#p95cd85a04a)" style="fill: none; stroke: #b0b0b0; stroke-width: 0.8; stroke-linecap: square"/>
     </g>
     <g id="line2d_28">
      <g>
       <use xlink:href="#m034749f2eb" x="54" y="51.84" style="stroke: #000000; stroke-width: 0.8"/>
      </g>
     </g>
     <g id="text_15">
      <!-- 2.5 -->
      <g transform="translate(31.096875 55.639219) scale(0.1 -0.1)">
       <use xlink:href="#DejaVuSans-32"/>
       <use xlink:href="#DejaVuSans-2e" transform="translate(63.623047 0)"/>
       <use xlink:href="#DejaVuSans-35" transform="translate(95.410156 0)"/>
      </g>
     </g>
    </g>
    <g id="text_16">
     <!-- $x_2$ -->
     <g transform="translate(16.6375 223.51) rotate(-90) scale(0.1 -0.1)">
      <use xlink:href="#DejaVuSans-Oblique-78" transform="translate(0 0.3125)"/>
      <use xlink:href="#DejaVuSans-32" transform="translate(59.179688 -16.09375) scale(0.7)"/>
     </g>
    </g>
   </g>
   <g id="line2d_29">
    <path d="M 54 99.36 
L 59.410909 105.12 
L 64.821818 110.88 
L 70.232727 116.64 
L 75.643636 122.4 
L 81.054545 128.16 
L 86.465455 133.92 
L 91.876364 139.68 
L 97.287273 145.44 
L 102.698182 151.2 
L 108.109091 156.96 
L 113.52 162.72 
L 118.930909 168.48 
L 124.341818 174.24 
L 129.752727 180 
L 135.163636 185.76 
L 140.574545 191.52 
L 145.985455 197.28 
L 151.396364 203.04 
L 156.807273 208.8 
L 162.218182 214.56 
L 167.629091 220.32 
L 173.04 226.08 
L 178.450909 231.84 
L 183.861818 237.6 
L 189.272727 243.36 
L 194.683636 249.12 
L 200.094545 254.88 
L 205.505455 260.64 
L 210.916364 266.4 
L 216.327273 272.16 
L 221.738182 277.92 
L 227.149091 283.68 
L 232.56 289.44 
L 237.970909 295.2 
L 243.381818 300.96 
L 248.792727 306.72 
L 254.203636 312.48 
L 259.614545 318.24 
L 265.025455 324 
L 270.436364 329.76 
L 275.847273 335.52 
L 281.258182 341.28 
L 286.669091 347.04 
L 292.08 352.8 
L 297.490909 358.56 
L 302.901818 364.32 
L 308.312727 370.08 
L 313.723636 375.84 
L 319.134545 381.6 
L 324.545455 387.36 
L 329.956364 393.12 
L 335.367273 398.88 
L 340.778182 404.64 
L 346.189091 410.4 
L 351.6 416.16 
L 357.010909 421.92 
L 362.421818 427.68 
L 367.419394 433 
" clip-path="url(#p95cd85a04a)" style="fill: none; stroke: #0000ff; stroke-width: 1.5; stroke-linecap: square"/>
   </g>
   <g id="line2d_30">
    <path d="M 54 289.44 
L 388.8 289.44 
" clip-path="url(#p95cd85a04a)" style="fill: none; stroke: #000000; stroke-width: 0.5; stroke-linecap: square"/>
   </g>
   <g id="line2d_31">
    <path d="M 54 384.48 
L 54 51.84 
" clip-path="url(#p95cd85a04a)" style="fill: none; stroke: #000000; stroke-width: 0.5; stroke-linecap: square"/>
   </g>
   <g id="patch_3">
    <path d="M 54 384.48 
L 54 51.84 
" style="fill: none; stroke: #000000; stroke-width: 0.8; stroke-linejoin: miter; stroke-linecap: square"/>
   </g>
   <g id="patch_4">
    <path d="M 388.8 384.48 
L 388.8 51.84 
" style="fill: none; stroke: #000000; stroke-width: 0.8; stroke-linejoin: miter; stroke-linecap: square"/>
   </g>
   <g id="patch_5">
    <path d="M 54 384.48 
L 388.8 384.48 
" style="fill: none; stroke: #000000; stroke-width: 0.8; stroke-linejoin: miter; stroke-linecap: square"/>
   </g>
   <g id="patch_6">
    <path d="M 54 51.84 
L 388.8 51.84 
" style="fill: none; stroke: #000000; stroke-width: 0.8; stroke-linejoin: miter; stroke-linecap: square"/>
   </g>
   <g id="text_17">
    <!-- Entscheidungsgrenze und Klassenbereiche -->
    <g transform="translate(92.806875 45.84) scale(0.12 -0.12)">
     <defs>
      <path id="DejaVuSans-45" d="M 628 4666 
L 3578 4666 
L 3578 4134 
L 1259 4134 
L 1259 2753 
L 3481 2753 
L 3481 2222 
L 1259 2222 
L 1259 531 
L 3634 531 
L 3634 0 
L 628 0 
L 628 4666 
z
" transform="scale(0.015625)"/>
      <path id="DejaVuSans-6e" d="M 3513 2113 
L 3513 0 
L 2938 0 
L 2938 2094 
Q 2938 2591 2744 2837 
Q 2550 3084 2163 3084 
Q 1697 3084 1428 2787 
Q 1159 2491 1159 1978 
L 1159 0 
L 581 0 
L 581 3500 
L 1159 3500 
L 1159 2956 
Q 1366 3272 1645 3428 
Q 1925 3584 2291 3584 
Q 2894 3584 3203 3211 
Q 3513 2838 3513 2113 
z
" transform="scale(0.015625)"/>
      <path id="DejaVuSans-74" d="M 1172 4494 
L 1172 3500 
L 2356 3500 
L 2356 3053 
L 1172 3053 
L 1172 1153 
Q 1172 725 1289 603 
Q 1406 481 1766 481 
L 2356 481 
L 2356 0 
L 1766 0 
Q 1100 0 847 248 
Q 594 497 594 1153 
L 594 3053 
L 172 3053 
L 172 3500 
L 594 3500 
L 594 4494 
L 1172 4494 
z
" transform="scale(0.015625)"/>
      <path id="DejaVuSans-73" d="M 2834 3397 
L 2834 2853 
Q 2591 2978 2328 3040 
Q 2066 3103 1784 3103 
Q 1356 3103 1142 2972 
Q 928 2841 928 2578 
Q 928 2378 1081 2264 
Q 1234 2150 1697 2047 
L 1894 2003 
Q 2506 1872 2764 1633 
Q 3022 1394 3022 966 
Q 3022 478 2636 193 
Q 2250 -91 1575 -91 
Q 1294 -91 989 -36 
Q 684 19 347 128 
L 347 722 
Q 666 556 975 473 
Q 1284 391 1588 391 
Q 1994 391 2212 530 
Q 2431 669 2431 922 
Q 2431 1156 2273 1281 
Q 2116 1406 1581 1522 
L 1381 1569 
Q 847 1681 609 1914 
Q 372 2147 372 2553 
Q 372 3047 722 3315 
Q 1072 3584 1716 3584 
Q 2034 3584 2315 3537 
Q 2597 3491 2834 3397 
z
" transform="scale(0.015625)"/>
      <path id="DejaVuSans-63" d="M 3122 3366 
L 3122 2828 
Q 2878 2963 2633 3030 
Q 2388 3097 2138 3097 
Q 1578 3097 1268 2742 
Q 959 2388 959 1747 
Q 959 1106 1268 751 
Q 1578 397 2138 397 
Q 2388 397 2633 464 
Q 2878 531 3122 666 
L 3122 134 
Q 2881 22 2623 -34 
Q 2366 -91 2075 -91 
Q 1284 -91 818 406 
Q 353 903 353 1747 
Q 353 2603 823 3093 
Q 1294 3584 2113 3584 
Q 2378 3584 2631 3529 
Q 2884 3475 3122 3366 
z
" transform="scale(0.015625)"/>
      <path id="DejaVuSans-68" d="M 3513 2113 
L 3513 0 
L 2938 0 
L 2938 2094 
Q 2938 2591 2744 2837 
Q 2550 3084 2163 3084 
Q 1697 3084 1428 2787 
Q 1159 2491 1159 1978 
L 1159 0 
L 581 0 
L 581 4863 
L 1159 4863 
L 1159 2956 
Q 1366 3272 1645 3428 
Q 1925 3584 2291 3584 
Q 2894 3584 3203 3211 
Q 3513 2838 3513 2113 
z
" transform="scale(0.015625)"/>
      <path id="DejaVuSans-65" d="M 3597 1894 
L 3597 1613 
L 953 1613 
Q 991 1019 1311 708 
Q 1631 397 2203 397 
Q 2534 397 2845 478 
Q 3156 559 3463 722 
L 3463 178 
Q 3153 47 2828 -22 
Q 2503 -91 2169 -91 
Q 1331 -91 842 396 
Q 353 884 353 1716 
Q 353 2575 817 3079 
Q 1281 3584 2069 3584 
Q 2775 3584 3186 3129 
Q 3597 2675 3597 1894 
z
M 3022 2063 
Q 3016 2534 2758 2815 
Q 2500 3097 2075 3097 
Q 1594 3097 1305 2825 
Q 1016 2553 972 2059 
L 3022 2063 
z
" transform="scale(0.015625)"/>
      <path id="DejaVuSans-69" d="M 603 3500 
L 1178 3500 
L 1178 0 
L 603 0 
L 603 3500 
z
M 603 4863 
L 1178 4863 
L 1178 4134 
L 603 4134 
L 603 4863 
z
" transform="scale(0.015625)"/>
      <path id="DejaVuSans-64" d="M 2906 2969 
L 2906 4863 
L 3481 4863 
L 3481 0 
L 2906 0 
L 2906 525 
Q 2725 213 2448 61 
Q 2172 -91 1784 -91 
Q 1150 -91 751 415 
Q 353 922 353 1747 
Q 353 2572 751 3078 
Q 1150 3584 1784 3584 
Q 2172 3584 2448 3432 
Q 2725 3281 2906 2969 
z
M 947 1747 
Q 947 1113 1208 752 
Q 1469 391 1925 391 
Q 2381 391 2643 752 
Q 2906 1113 2906 1747 
Q 2906 2381 2643 2742 
Q 2381 3103 1925 3103 
Q 1469 3103 1208 2742 
Q 947 2381 947 1747 
z
" transform="scale(0.015625)"/>
      <path id="DejaVuSans-75" d="M 544 1381 
L 544 3500 
L 1119 3500 
L 1119 1403 
Q 1119 906 1312 657 
Q 1506 409 1894 409 
Q 2359 409 2629 706 
Q 2900 1003 2900 1516 
L 2900 3500 
L 3475 3500 
L 3475 0 
L 2900 0 
L 2900 538 
Q 2691 219 2414 64 
Q 2138 -91 1772 -91 
Q 1169 -91 856 284 
Q 544 659 544 1381 
z
M 1991 3584 
L 1991 3584 
z
" transform="scale(0.015625)"/>
      <path id="DejaVuSans-67" d="M 2906 1791 
Q 2906 2416 2648 2759 
Q 2391 3103 1925 3103 
Q 1463 3103 1205 2759 
Q 947 2416 947 1791 
Q 947 1169 1205 825 
Q 1463 481 1925 481 
Q 2391 481 2648 825 
Q 2906 1169 2906 1791 
z
M 3481 434 
Q 3481 -459 3084 -895 
Q 2688 -1331 1869 -1331 
Q 1566 -1331 1297 -1286 
Q 1028 -1241 775 -1147 
L 775 -588 
Q 1028 -725 1275 -790 
Q 1522 -856 1778 -856 
Q 2344 -856 2625 -561 
Q 2906 -266 2906 331 
L 2906 616 
Q 2728 306 2450 153 
Q 2172 0 1784 0 
Q 1141 0 747 490 
Q 353 981 353 1791 
Q 353 2603 747 3093 
Q 1141 3584 1784 3584 
Q 2172 3584 2450 3431 
Q 2728 3278 2906 2969 
L 2906 3500 
L 3481 3500 
L 3481 434 
z
" transform="scale(0.015625)"/>
      <path id="DejaVuSans-72" d="M 2631 2963 
Q 2534 3019 2420 3045 
Q 2306 3072 2169 3072 
Q 1681 3072 1420 2755 
Q 1159 2438 1159 1844 
L 1159 0 
L 581 0 
L 581 3500 
L 1159 3500 
L 1159 2956 
Q 1341 3275 1631 3429 
Q 1922 3584 2338 3584 
Q 2397 3584 2469 3576 
Q 2541 3569 2628 3553 
L 2631 2963 
z
" transform="scale(0.015625)"/>
      <path id="DejaVuSans-7a" d="M 353 3500 
L 3084 3500 
L 3084 2975 
L 922 459 
L 3084 459 
L 3084 0 
L 275 0 
L 275 525 
L 2438 3041 
L 353 3041 
L 353 3500 
z
" transform="scale(0.015625)"/>
      <path id="DejaVuSans-20" transform="scale(0.015625)"/>
      <path id="DejaVuSans-4b" d="M 628 4666 
L 1259 4666 
L 1259 2694 
L 3353 4666 
L 4166 4666 
L 1850 2491 
L 4331 0 
L 3500 0 
L 1259 2247 
L 1259 0 
L 628 0 
L 628 4666 
z
" transform="scale(0.015625)"/>
      <path id="DejaVuSans-6c" d="M 603 4863 
L 1178 4863 
L 1178 0 
L 603 0 
L 603 4863 
z
" transform="scale(0.015625)"/>
      <path id="DejaVuSans-61" d="M 2194 1759 
Q 1497 1759 1228 1600 
Q 959 1441 959 1056 
Q 959 750 1161 570 
Q 1363 391 1709 391 
Q 2188 391 2477 730 
Q 2766 1069 2766 1631 
L 2766 1759 
L 2194 1759 
z
M 3341 1997 
L 3341 0 
L 2766 0 
L 2766 531 
Q 2569 213 2275 61 
Q 1981 -91 1556 -91 
Q 1019 -91 701 211 
Q 384 513 384 1019 
Q 384 1609 779 1909 
Q 1175 2209 1959 2209 
L 2766 2209 
L 2766 2266 
Q 2766 2663 2505 2880 
Q 2244 3097 1772 3097 
Q 1472 3097 1187 3025 
Q 903 2953 641 2809 
L 641 3341 
Q 956 3463 1253 3523 
Q 1550 3584 1831 3584 
Q 2591 3584 2966 3190 
Q 3341 2797 3341 1997 
z
" transform="scale(0.015625)"/>
      <path id="DejaVuSans-62" d="M 3116 1747 
Q 3116 2381 2855 2742 
Q 2594 3103 2138 3103 
Q 1681 3103 1420 2742 
Q 1159 2381 1159 1747 
Q 1159 1113 1420 752 
Q 1681 391 2138 391 
Q 2594 391 2855 752 
Q 3116 1113 3116 1747 
z
M 1159 2969 
Q 1341 3281 1617 3432 
Q 1894 3584 2278 3584 
Q 2916 3584 3314 3078 
Q 3713 2572 3713 1747 
Q 3713 922 3314 415 
Q 2916 -91 2278 -91 
Q 1894 -91 1617 61 
Q 1341 213 1159 525 
L 1159 0 
L 581 0 
L 581 4863 
L 1159 4863 
L 1159 2969 
z
" transform="scale(0.015625)"/>
     </defs>
     <use xlink:href="#DejaVuSans-45"/>
     <use xlink:href="#DejaVuSans-6e" transform="translate(63.183594 0)"/>
     <use xlink:href="#DejaVuSans-74" transform="translate(126.5625 0)"/>
     <use xlink:href="#DejaVuSans-73" transform="translate(165.771484 0)"/>
     <use xlink:href="#DejaVuSans-63" transform="translate(217.871094 0)"/>
     <use xlink:href="#DejaVuSans-68" transform="translate(272.851562 0)"/>
     <use xlink:href="#DejaVuSans-65" transform="translate(336.230469 0)"/>
     <use xlink:href="#DejaVuSans-69" transform="translate(397.753906 0)"/>
     <use xlink:href="#DejaVuSans-64" transform="translate(425.537109 0)"/>
     <use xlink:href="#DejaVuSans-75" transform="translate(489.013672 0)"/>
     <use xlink:href="#DejaVuSans-6e" transform="translate(552.392578 0)"/>
     <use xlink:href="#DejaVuSans-67" transform="translate(615.771484 0)"/>
     <use xlink:href="#DejaVuSans-73" transform="translate(679.248047 0)"/>
     <use xlink:href="#DejaVuSans-67" transform="translate(731.347656 0)"/>
     <use xlink:href="#DejaVuSans-72" transform="translate(794.824219 0)"/>
     <use xlink:href="#DejaVuSans-65" transform="translate(833.6875 0)"/>
     <use xlink:href="#DejaVuSans-6e" transform="translate(895.210938 0)"/>
     <use xlink:href="#DejaVuSans-7a" transform="translate(958.589844 0)"/>
     <use xlink:href="#DejaVuSans-65" transform="translate(1011.080078 0)"/>
     <use xlink:href="#DejaVuSans-20" transform="translate(1072.603516 0)"/>
     <use xlink:href="#DejaVuSans-75" transform="translate(1104.390625 0)"/>
     <use xlink:href="#DejaVuSans-6e" transform="translate(1167.769531 0)"/>
     <use xlink:href="#DejaVuSans-64" transform="translate(1231.148438 0)"/>
     <use xlink:href="#DejaVuSans-20" transform="translate(1294.625 0)"/>
     <use xlink:href="#DejaVuSans-4b" transform="translate(1326.412109 0)"/>
     <use xlink:href="#DejaVuSans-6c" transform="translate(1391.988281 0)"/>
     <use xlink:href="#DejaVuSans-61" transform="translate(1419.771484 0)"/>
     <use xlink:href="#DejaVuSans-73" transform="translate(1481.050781 0)"/>
     <use xlink:href="#DejaVuSans-73" transform="translate(1533.150391 0)"/>
     <use xlink:href="#DejaVuSans-65" transform="translate(1585.25 0)"/>
     <use xlink:href="#DejaVuSans-6e" transform="translate(1646.773438 0)"/>
     <use xlink:href="#DejaVuSans-62" transform="translate(1710.152344 0)"/>
     <use xlink:href="#DejaVuSans-65" transform="translate(1773.628906 0)"/>
     <use xlink:href="#DejaVuSans-72" transform="translate(1835.152344 0)"/>
     <use xlink:href="#DejaVuSans-65" transform="translate(1874.015625 0)"/>
     <use xlink:href="#DejaVuSans-69" transform="translate(1935.539062 0)"/>
     <use xlink:href="#DejaVuSans-63" transform="translate(1963.322266 0)"/>
     <use xlink:href="#DejaVuSans-68" transform="translate(2018.302734 0)"/>
     <use xlink:href="#DejaVuSans-65" transform="translate(2081.681641 0)"/>
    </g>
   </g>
   <g id="legend_1">
    <g id="patch_7">
     <path d="M 242.539062 103.874375 
L 381.8 103.874375 
Q 383.8 103.874375 383.8 101.874375 
L 383.8 58.84 
Q 383.8 56.84 381.8 56.84 
L 242.539062 56.84 
Q 240.539062 56.84 240.539062 58.84 
L 240.539062 101.874375 
Q 240.539062 103.874375 242.539062 103.874375 
z
" style="fill: #ffffff; opacity: 0.8; stroke: #cccccc; stroke-linejoin: miter"/>
    </g>
    <g id="line2d_32">
     <path d="M 244.539062 64.938437 
L 254.539062 64.938437 
L 264.539062 64.938437 
" style="fill: none; stroke: #0000ff; stroke-width: 1.5; stroke-linecap: square"/>
    </g>
    <g id="text_18">
     <!-- Entscheidungsgrenze -->
     <g transform="translate(272.539062 68.438437) scale(0.1 -0.1)">
      <use xlink:href="#DejaVuSans-45"/>
      <use xlink:href="#DejaVuSans-6e" transform="translate(63.183594 0)"/>
      <use xlink:href="#DejaVuSans-74" transform="translate(126.5625 0)"/>
      <use xlink:href="#DejaVuSans-73" transform="translate(165.771484 0)"/>
      <use xlink:href="#DejaVuSans-63" transform="translate(217.871094 0)"/>
      <use xlink:href="#DejaVuSans-68" transform="translate(272.851562 0)"/>
      <use xlink:href="#DejaVuSans-65" transform="translate(336.230469 0)"/>
      <use xlink:href="#DejaVuSans-69" transform="translate(397.753906 0)"/>
      <use xlink:href="#DejaVuSans-64" transform="translate(425.537109 0)"/>
      <use xlink:href="#DejaVuSans-75" transform="translate(489.013672 0)"/>
      <use xlink:href="#DejaVuSans-6e" transform="translate(552.392578 0)"/>
      <use xlink:href="#DejaVuSans-67" transform="translate(615.771484 0)"/>
      <use xlink:href="#DejaVuSans-73" transform="translate(679.248047 0)"/>
      <use xlink:href="#DejaVuSans-67" transform="translate(731.347656 0)"/>
      <use xlink:href="#DejaVuSans-72" transform="translate(794.824219 0)"/>
      <use xlink:href="#DejaVuSans-65" transform="translate(833.6875 0)"/>
      <use xlink:href="#DejaVuSans-6e" transform="translate(895.210938 0)"/>
      <use xlink:href="#DejaVuSans-7a" transform="translate(958.589844 0)"/>
      <use xlink:href="#DejaVuSans-65" transform="translate(1011.080078 0)"/>
     </g>
    </g>
    <g id="patch_8">
     <path d="M 244.539062 83.116562 
L 264.539062 83.116562 
L 264.539062 76.116562 
L 244.539062 76.116562 
z
" style="fill: url(#h9abe0bb49b); stroke: #008000; stroke-opacity: 0.8; stroke-linejoin: miter"/>
    </g>
    <g id="text_19">
     <!-- Klasse 1 ($h_\theta(x) \geq 0.5$) -->
     <g transform="translate(272.539062 83.116562) scale(0.1 -0.1)">
      <defs>
       <path id="DejaVuSans-28" d="M 1984 4856 
Q 1566 4138 1362 3434 
Q 1159 2731 1159 2009 
Q 1159 1288 1364 580 
Q 1569 -128 1984 -844 
L 1484 -844 
Q 1016 -109 783 600 
Q 550 1309 550 2009 
Q 550 2706 781 3412 
Q 1013 4119 1484 4856 
L 1984 4856 
z
" transform="scale(0.015625)"/>
       <path id="DejaVuSans-Oblique-68" d="M 3566 2113 
L 3156 0 
L 2578 0 
L 2988 2091 
Q 3016 2238 3031 2350 
Q 3047 2463 3047 2528 
Q 3047 2791 2881 2937 
Q 2716 3084 2419 3084 
Q 1956 3084 1617 2771 
Q 1278 2459 1178 1941 
L 800 0 
L 225 0 
L 1172 4863 
L 1747 4863 
L 1375 2950 
Q 1594 3244 1934 3414 
Q 2275 3584 2650 3584 
Q 3113 3584 3367 3334 
Q 3622 3084 3622 2631 
Q 3622 2519 3608 2391 
Q 3594 2263 3566 2113 
z
" transform="scale(0.015625)"/>
       <path id="DejaVuSans-Oblique-3b8" d="M 2913 2219 
L 925 2219 
Q 791 1284 928 888 
Q 1100 400 1566 400 
Q 2034 400 2391 891 
Q 2703 1322 2913 2219 
z
M 3009 2750 
Q 3094 3638 2984 3950 
Q 2813 4444 2353 4444 
Q 1875 4444 1525 3956 
Q 1250 3563 1034 2750 
L 3009 2750 
z
M 2444 4913 
Q 3194 4913 3494 4250 
Q 3794 3591 3566 2422 
Q 3341 1256 2781 594 
Q 2225 -72 1475 -72 
Q 722 -72 425 594 
Q 128 1256 353 2422 
Q 581 3591 1134 4250 
Q 1691 4913 2444 4913 
z
" transform="scale(0.015625)"/>
       <path id="DejaVuSans-29" d="M 513 4856 
L 1013 4856 
Q 1481 4119 1714 3412 
Q 1947 2706 1947 2009 
Q 1947 1309 1714 600 
Q 1481 -109 1013 -844 
L 513 -844 
Q 928 -128 1133 580 
Q 1338 1288 1338 2009 
Q 1338 2731 1133 3434 
Q 928 4138 513 4856 
z
" transform="scale(0.015625)"/>
       <path id="DejaVuSans-2265" d="M 678 3175 
L 678 3725 
L 4684 2578 
L 4684 2047 
L 678 897 
L 678 1453 
L 3681 2309 
L 678 3175 
z
M 4684 531 
L 4684 0 
L 678 0 
L 678 531 
L 4684 531 
z
" transform="scale(0.015625)"/>
      </defs>
      <use xlink:href="#DejaVuSans-4b" transform="translate(0 0.015625)"/>
      <use xlink:href="#DejaVuSans-6c" transform="translate(65.576172 0.015625)"/>
      <use xlink:href="#DejaVuSans-61" transform="translate(93.359375 0.015625)"/>
      <use xlink:href="#DejaVuSans-73" transform="translate(154.638672 0.015625)"/>
      <use xlink:href="#DejaVuSans-73" transform="translate(206.738281 0.015625)"/>
      <use xlink:href="#DejaVuSans-65" transform="translate(258.837891 0.015625)"/>
      <use xlink:href="#DejaVuSans-20" transform="translate(320.361328 0.015625)"/>
      <use xlink:href="#DejaVuSans-31" transform="translate(352.148438 0.015625)"/>
      <use xlink:href="#DejaVuSans-20" transform="translate(415.771484 0.015625)"/>
      <use xlink:href="#DejaVuSans-28" transform="translate(447.558594 0.015625)"/>
      <use xlink:href="#DejaVuSans-Oblique-68" transform="translate(486.572266 0.015625)"/>
      <use xlink:href="#DejaVuSans-Oblique-3b8" transform="translate(549.951172 -16.390625) scale(0.7)"/>
      <use xlink:href="#DejaVuSans-28" transform="translate(595.512695 0.015625)"/>
      <use xlink:href="#DejaVuSans-Oblique-78" transform="translate(634.526367 0.015625)"/>
      <use xlink:href="#DejaVuSans-29" transform="translate(693.706055 0.015625)"/>
      <use xlink:href="#DejaVuSans-2265" transform="translate(752.202148 0.015625)"/>
      <use xlink:href="#DejaVuSans-30" transform="translate(855.473633 0.015625)"/>
      <use xlink:href="#DejaVuSans-2e" transform="translate(919.09668 0.015625)"/>
      <use xlink:href="#DejaVuSans-35" transform="translate(950.883789 0.015625)"/>
      <use xlink:href="#DejaVuSans-29" transform="translate(1014.506836 0.015625)"/>
     </g>
    </g>
    <g id="patch_9">
     <path d="M 244.539062 97.794687 
L 264.539062 97.794687 
L 264.539062 90.794687 
L 244.539062 90.794687 
z
" style="fill: url(#h0e046836c7); stroke: #f08080; stroke-opacity: 0.8; stroke-linejoin: miter"/>
    </g>
    <g id="text_20">
     <!-- Klasse 0 ($h_\theta(x) &lt; 0.5$) -->
     <g transform="translate(272.539062 97.794687) scale(0.1 -0.1)">
      <defs>
       <path id="DejaVuSans-3c" d="M 4684 3150 
L 1459 2003 
L 4684 863 
L 4684 294 
L 678 1747 
L 678 2266 
L 4684 3719 
L 4684 3150 
z
" transform="scale(0.015625)"/>
      </defs>
      <use xlink:href="#DejaVuSans-4b" transform="translate(0 0.015625)"/>
      <use xlink:href="#DejaVuSans-6c" transform="translate(65.576172 0.015625)"/>
      <use xlink:href="#DejaVuSans-61" transform="translate(93.359375 0.015625)"/>
      <use xlink:href="#DejaVuSans-73" transform="translate(154.638672 0.015625)"/>
      <use xlink:href="#DejaVuSans-73" transform="translate(206.738281 0.015625)"/>
      <use xlink:href="#DejaVuSans-65" transform="translate(258.837891 0.015625)"/>
      <use xlink:href="#DejaVuSans-20" transform="translate(320.361328 0.015625)"/>
      <use xlink:href="#DejaVuSans-30" transform="translate(352.148438 0.015625)"/>
      <use xlink:href="#DejaVuSans-20" transform="translate(415.771484 0.015625)"/>
      <use xlink:href="#DejaVuSans-28" transform="translate(447.558594 0.015625)"/>
      <use xlink:href="#DejaVuSans-Oblique-68" transform="translate(486.572266 0.015625)"/>
      <use xlink:href="#DejaVuSans-Oblique-3b8" transform="translate(549.951172 -16.390625) scale(0.7)"/>
      <use xlink:href="#DejaVuSans-28" transform="translate(595.512695 0.015625)"/>
      <use xlink:href="#DejaVuSans-Oblique-78" transform="translate(634.526367 0.015625)"/>
      <use xlink:href="#DejaVuSans-29" transform="translate(693.706055 0.015625)"/>
      <use xlink:href="#DejaVuSans-3c" transform="translate(752.202148 0.015625)"/>
      <use xlink:href="#DejaVuSans-30" transform="translate(855.473633 0.015625)"/>
      <use xlink:href="#DejaVuSans-2e" transform="translate(919.09668 0.015625)"/>
      <use xlink:href="#DejaVuSans-35" transform="translate(950.883789 0.015625)"/>
      <use xlink:href="#DejaVuSans-29" transform="translate(1014.506836 0.015625)"/>
     </g>
    </g>
   </g>
  </g>
 </g>
 <defs>
  <clipPath id="p95cd85a04a">
   <rect x="54" y="51.84" width="334.8" height="332.64"/>
  </clipPath>
 </defs>
 <defs>
  <pattern id="h9abe0bb49b" patternUnits="userSpaceOnUse" x="0" y="0" width="72" height="72">
   <rect x="0" y="0" width="73" height="73" fill="none"/>
   <path d="M -36 36 
L 36 -36 
M -24 48 
L 48 -24 
M -12 60 
L 60 -12 
M 0 72 
L 72 0 
M 12 84 
L 84 12 
M 24 96 
L 96 24 
M 36 108 
L 108 36 
M -36 36 
L 36 108 
M -24 24 
L 48 96 
M -12 12 
L 60 84 
M 0 0 
L 72 72 
M 12 -12 
L 84 60 
M 24 -24 
L 96 48 
M 36 -36 
L 108 36 
" style="fill: #008000; stroke: #008000; stroke-width: 1.0; stroke-linecap: butt; stroke-linejoin: miter; stroke-opacity: 0.8"/>
  </pattern>
  <pattern id="h0e046836c7" patternUnits="userSpaceOnUse" x="0" y="0" width="72" height="72">
   <rect x="0" y="0" width="73" height="73" fill="none"/>
   <path d="M 0 68 
L -1.175571 70.381966 
L -3.804226 70.763932 
L -1.902113 72.618034 
L -2.351141 75.236068 
L -0 74 
L 2.351141 75.236068 
L 1.902113 72.618034 
L 3.804226 70.763932 
L 1.175571 70.381966 
L 0 68 
M 12 68 
L 10.824429 70.381966 
L 8.195774 70.763932 
L 10.097887 72.618034 
L 9.648859 75.236068 
L 12 74 
L 14.351141 75.236068 
L 13.902113 72.618034 
L 15.804226 70.763932 
L 13.175571 70.381966 
L 12 68 
M 24 68 
L 22.824429 70.381966 
L 20.195774 70.763932 
L 22.097887 72.618034 
L 21.648859 75.236068 
L 24 74 
L 26.351141 75.236068 
L 25.902113 72.618034 
L 27.804226 70.763932 
L 25.175571 70.381966 
L 24 68 
M 36 68 
L 34.824429 70.381966 
L 32.195774 70.763932 
L 34.097887 72.618034 
L 33.648859 75.236068 
L 36 74 
L 38.351141 75.236068 
L 37.902113 72.618034 
L 39.804226 70.763932 
L 37.175571 70.381966 
L 36 68 
M 48 68 
L 46.824429 70.381966 
L 44.195774 70.763932 
L 46.097887 72.618034 
L 45.648859 75.236068 
L 48 74 
L 50.351141 75.236068 
L 49.902113 72.618034 
L 51.804226 70.763932 
L 49.175571 70.381966 
L 48 68 
M 60 68 
L 58.824429 70.381966 
L 56.195774 70.763932 
L 58.097887 72.618034 
L 57.648859 75.236068 
L 60 74 
L 62.351141 75.236068 
L 61.902113 72.618034 
L 63.804226 70.763932 
L 61.175571 70.381966 
L 60 68 
M 72 68 
L 70.824429 70.381966 
L 68.195774 70.763932 
L 70.097887 72.618034 
L 69.648859 75.236068 
L 72 74 
L 74.351141 75.236068 
L 73.902113 72.618034 
L 75.804226 70.763932 
L 73.175571 70.381966 
L 72 68 
M 6 56 
L 4.824429 58.381966 
L 2.195774 58.763932 
L 4.097887 60.618034 
L 3.648859 63.236068 
L 6 62 
L 8.351141 63.236068 
L 7.902113 60.618034 
L 9.804226 58.763932 
L 7.175571 58.381966 
L 6 56 
M 18 56 
L 16.824429 58.381966 
L 14.195774 58.763932 
L 16.097887 60.618034 
L 15.648859 63.236068 
L 18 62 
L 20.351141 63.236068 
L 19.902113 60.618034 
L 21.804226 58.763932 
L 19.175571 58.381966 
L 18 56 
M 30 56 
L 28.824429 58.381966 
L 26.195774 58.763932 
L 28.097887 60.618034 
L 27.648859 63.236068 
L 30 62 
L 32.351141 63.236068 
L 31.902113 60.618034 
L 33.804226 58.763932 
L 31.175571 58.381966 
L 30 56 
M 42 56 
L 40.824429 58.381966 
L 38.195774 58.763932 
L 40.097887 60.618034 
L 39.648859 63.236068 
L 42 62 
L 44.351141 63.236068 
L 43.902113 60.618034 
L 45.804226 58.763932 
L 43.175571 58.381966 
L 42 56 
M 54 56 
L 52.824429 58.381966 
L 50.195774 58.763932 
L 52.097887 60.618034 
L 51.648859 63.236068 
L 54 62 
L 56.351141 63.236068 
L 55.902113 60.618034 
L 57.804226 58.763932 
L 55.175571 58.381966 
L 54 56 
M 66 56 
L 64.824429 58.381966 
L 62.195774 58.763932 
L 64.097887 60.618034 
L 63.648859 63.236068 
L 66 62 
L 68.351141 63.236068 
L 67.902113 60.618034 
L 69.804226 58.763932 
L 67.175571 58.381966 
L 66 56 
M 0 44 
L -1.175571 46.381966 
L -3.804226 46.763932 
L -1.902113 48.618034 
L -2.351141 51.236068 
L -0 50 
L 2.351141 51.236068 
L 1.902113 48.618034 
L 3.804226 46.763932 
L 1.175571 46.381966 
L 0 44 
M 12 44 
L 10.824429 46.381966 
L 8.195774 46.763932 
L 10.097887 48.618034 
L 9.648859 51.236068 
L 12 50 
L 14.351141 51.236068 
L 13.902113 48.618034 
L 15.804226 46.763932 
L 13.175571 46.381966 
L 12 44 
M 24 44 
L 22.824429 46.381966 
L 20.195774 46.763932 
L 22.097887 48.618034 
L 21.648859 51.236068 
L 24 50 
L 26.351141 51.236068 
L 25.902113 48.618034 
L 27.804226 46.763932 
L 25.175571 46.381966 
L 24 44 
M 36 44 
L 34.824429 46.381966 
L 32.195774 46.763932 
L 34.097887 48.618034 
L 33.648859 51.236068 
L 36 50 
L 38.351141 51.236068 
L 37.902113 48.618034 
L 39.804226 46.763932 
L 37.175571 46.381966 
L 36 44 
M 48 44 
L 46.824429 46.381966 
L 44.195774 46.763932 
L 46.097887 48.618034 
L 45.648859 51.236068 
L 48 50 
L 50.351141 51.236068 
L 49.902113 48.618034 
L 51.804226 46.763932 
L 49.175571 46.381966 
L 48 44 
M 60 44 
L 58.824429 46.381966 
L 56.195774 46.763932 
L 58.097887 48.618034 
L 57.648859 51.236068 
L 60 50 
L 62.351141 51.236068 
L 61.902113 48.618034 
L 63.804226 46.763932 
L 61.175571 46.381966 
L 60 44 
M 72 44 
L 70.824429 46.381966 
L 68.195774 46.763932 
L 70.097887 48.618034 
L 69.648859 51.236068 
L 72 50 
L 74.351141 51.236068 
L 73.902113 48.618034 
L 75.804226 46.763932 
L 73.175571 46.381966 
L 72 44 
M 6 32 
L 4.824429 34.381966 
L 2.195774 34.763932 
L 4.097887 36.618034 
L 3.648859 39.236068 
L 6 38 
L 8.351141 39.236068 
L 7.902113 36.618034 
L 9.804226 34.763932 
L 7.175571 34.381966 
L 6 32 
M 18 32 
L 16.824429 34.381966 
L 14.195774 34.763932 
L 16.097887 36.618034 
L 15.648859 39.236068 
L 18 38 
L 20.351141 39.236068 
L 19.902113 36.618034 
L 21.804226 34.763932 
L 19.175571 34.381966 
L 18 32 
M 30 32 
L 28.824429 34.381966 
L 26.195774 34.763932 
L 28.097887 36.618034 
L 27.648859 39.236068 
L 30 38 
L 32.351141 39.236068 
L 31.902113 36.618034 
L 33.804226 34.763932 
L 31.175571 34.381966 
L 30 32 
M 42 32 
L 40.824429 34.381966 
L 38.195774 34.763932 
L 40.097887 36.618034 
L 39.648859 39.236068 
L 42 38 
L 44.351141 39.236068 
L 43.902113 36.618034 
L 45.804226 34.763932 
L 43.175571 34.381966 
L 42 32 
M 54 32 
L 52.824429 34.381966 
L 50.195774 34.763932 
L 52.097887 36.618034 
L 51.648859 39.236068 
L 54 38 
L 56.351141 39.236068 
L 55.902113 36.618034 
L 57.804226 34.763932 
L 55.175571 34.381966 
L 54 32 
M 66 32 
L 64.824429 34.381966 
L 62.195774 34.763932 
L 64.097887 36.618034 
L 63.648859 39.236068 
L 66 38 
L 68.351141 39.236068 
L 67.902113 36.618034 
L 69.804226 34.763932 
L 67.175571 34.381966 
L 66 32 
M 0 20 
L -1.175571 22.381966 
L -3.804226 22.763932 
L -1.902113 24.618034 
L -2.351141 27.236068 
L -0 26 
L 2.351141 27.236068 
L 1.902113 24.618034 
L 3.804226 22.763932 
L 1.175571 22.381966 
L 0 20 
M 12 20 
L 10.824429 22.381966 
L 8.195774 22.763932 
L 10.097887 24.618034 
L 9.648859 27.236068 
L 12 26 
L 14.351141 27.236068 
L 13.902113 24.618034 
L 15.804226 22.763932 
L 13.175571 22.381966 
L 12 20 
M 24 20 
L 22.824429 22.381966 
L 20.195774 22.763932 
L 22.097887 24.618034 
L 21.648859 27.236068 
L 24 26 
L 26.351141 27.236068 
L 25.902113 24.618034 
L 27.804226 22.763932 
L 25.175571 22.381966 
L 24 20 
M 36 20 
L 34.824429 22.381966 
L 32.195774 22.763932 
L 34.097887 24.618034 
L 33.648859 27.236068 
L 36 26 
L 38.351141 27.236068 
L 37.902113 24.618034 
L 39.804226 22.763932 
L 37.175571 22.381966 
L 36 20 
M 48 20 
L 46.824429 22.381966 
L 44.195774 22.763932 
L 46.097887 24.618034 
L 45.648859 27.236068 
L 48 26 
L 50.351141 27.236068 
L 49.902113 24.618034 
L 51.804226 22.763932 
L 49.175571 22.381966 
L 48 20 
M 60 20 
L 58.824429 22.381966 
L 56.195774 22.763932 
L 58.097887 24.618034 
L 57.648859 27.236068 
L 60 26 
L 62.351141 27.236068 
L 61.902113 24.618034 
L 63.804226 22.763932 
L 61.175571 22.381966 
L 60 20 
M 72 20 
L 70.824429 22.381966 
L 68.195774 22.763932 
L 70.097887 24.618034 
L 69.648859 27.236068 
L 72 26 
L 74.351141 27.236068 
L 73.902113 24.618034 
L 75.804226 22.763932 
L 73.175571 22.381966 
L 72 20 
M 6 8 
L 4.824429 10.381966 
L 2.195774 10.763932 
L 4.097887 12.618034 
L 3.648859 15.236068 
L 6 14 
L 8.351141 15.236068 
L 7.902113 12.618034 
L 9.804226 10.763932 
L 7.175571 10.381966 
L 6 8 
M 18 8 
L 16.824429 10.381966 
L 14.195774 10.763932 
L 16.097887 12.618034 
L 15.648859 15.236068 
L 18 14 
L 20.351141 15.236068 
L 19.902113 12.618034 
L 21.804226 10.763932 
L 19.175571 10.381966 
L 18 8 
M 30 8 
L 28.824429 10.381966 
L 26.195774 10.763932 
L 28.097887 12.618034 
L 27.648859 15.236068 
L 30 14 
L 32.351141 15.236068 
L 31.902113 12.618034 
L 33.804226 10.763932 
L 31.175571 10.381966 
L 30 8 
M 42 8 
L 40.824429 10.381966 
L 38.195774 10.763932 
L 40.097887 12.618034 
L 39.648859 15.236068 
L 42 14 
L 44.351141 15.236068 
L 43.902113 12.618034 
L 45.804226 10.763932 
L 43.175571 10.381966 
L 42 8 
M 54 8 
L 52.824429 10.381966 
L 50.195774 10.763932 
L 52.097887 12.618034 
L 51.648859 15.236068 
L 54 14 
L 56.351141 15.236068 
L 55.902113 12.618034 
L 57.804226 10.763932 
L 55.175571 10.381966 
L 54 8 
M 66 8 
L 64.824429 10.381966 
L 62.195774 10.763932 
L 64.097887 12.618034 
L 63.648859 15.236068 
L 66 14 
L 68.351141 15.236068 
L 67.902113 12.618034 
L 69.804226 10.763932 
L 67.175571 10.381966 
L 66 8 
M 0 -4 
L -1.175571 -1.618034 
L -3.804226 -1.236068 
L -1.902113 0.618034 
L -2.351141 3.236068 
L -0 2 
L 2.351141 3.236068 
L 1.902113 0.618034 
L 3.804226 -1.236068 
L 1.175571 -1.618034 
L 0 -4 
M 12 -4 
L 10.824429 -1.618034 
L 8.195774 -1.236068 
L 10.097887 0.618034 
L 9.648859 3.236068 
L 12 2 
L 14.351141 3.236068 
L 13.902113 0.618034 
L 15.804226 -1.236068 
L 13.175571 -1.618034 
L 12 -4 
M 24 -4 
L 22.824429 -1.618034 
L 20.195774 -1.236068 
L 22.097887 0.618034 
L 21.648859 3.236068 
L 24 2 
L 26.351141 3.236068 
L 25.902113 0.618034 
L 27.804226 -1.236068 
L 25.175571 -1.618034 
L 24 -4 
M 36 -4 
L 34.824429 -1.618034 
L 32.195774 -1.236068 
L 34.097887 0.618034 
L 33.648859 3.236068 
L 36 2 
L 38.351141 3.236068 
L 37.902113 0.618034 
L 39.804226 -1.236068 
L 37.175571 -1.618034 
L 36 -4 
M 48 -4 
L 46.824429 -1.618034 
L 44.195774 -1.236068 
L 46.097887 0.618034 
L 45.648859 3.236068 
L 48 2 
L 50.351141 3.236068 
L 49.902113 0.618034 
L 51.804226 -1.236068 
L 49.175571 -1.618034 
L 48 -4 
M 60 -4 
L 58.824429 -1.618034 
L 56.195774 -1.236068 
L 58.097887 0.618034 
L 57.648859 3.236068 
L 60 2 
L 62.351141 3.236068 
L 61.902113 0.618034 
L 63.804226 -1.236068 
L 61.175571 -1.618034 
L 60 -4 
M 72 -4 
L 70.824429 -1.618034 
L 68.195774 -1.236068 
L 70.097887 0.618034 
L 69.648859 3.236068 
L 72 2 
L 74.351141 3.236068 
L 73.902113 0.618034 
L 75.804226 -1.236068 
L 73.175571 -1.618034 
L 72 -4 
" style="fill: #f08080; stroke: #f08080; stroke-width: 1.0; stroke-linecap: butt; stroke-linejoin: miter; stroke-opacity: 0.8"/>
  </pattern>
 </defs>
</svg>
